<svg width="218" height="45" viewBox="0 0 218 45" fill="none" xmlns="http://www.w3.org/2000/svg">
<g clip-path="url(#clip0_507_2)">
<path d="M32.0434 15.4162C32.0598 17.7011 31.5632 19.9601 30.5909 22.023C29.7372 23.9183 28.4472 25.5795 26.8288 26.868C25.4633 28.0028 23.7591 28.639 21.9917 28.6739C20.5127 28.5648 19.0774 28.1181 17.7938 27.3672C15.6861 26.1915 13.7338 24.751 11.9836 23.0801V36.1323C11.9836 37.6005 11.9836 38.8925 12.1143 39.8028C12.1955 40.6913 12.4628 41.5522 12.8987 42.3281C13.1393 42.8039 13.4842 43.2179 13.9071 43.5385C14.33 43.8591 14.8198 44.0778 15.339 44.178V44.457H0V44.178C0.51926 44.0778 1.00902 43.8591 1.43193 43.5385C1.85485 43.2179 2.19973 42.8039 2.4403 42.3281C2.87617 41.5522 3.14357 40.6913 3.22468 39.8028C3.31183 38.8925 3.35541 37.6592 3.35541 36.1323V8.94146C3.38166 7.10521 3.16674 5.27357 2.71628 3.49447C2.59947 2.82399 2.27228 2.20931 1.78311 1.74132C1.29394 1.27332 0.668754 0.976864 0 0.895778L0 0.616822H15.3971C19.2828 0.391025 23.1333 1.46983 26.3494 3.68534C28.8503 5.53259 30.666 8.17427 31.506 11.1878C31.8623 12.5684 32.0429 13.9893 32.0434 15.4162ZM23.3281 12.4798C23.3674 10.4269 22.9712 8.38935 22.166 6.50426C21.5264 4.97471 20.5296 3.62461 19.2609 2.56951C18.2428 1.68877 16.9548 1.19083 15.615 1.16005C14.9469 1.12033 14.2869 1.32347 13.7541 1.73276C13.2213 2.14204 12.8509 2.73047 12.7099 3.3917C12.2454 5.20312 12.0303 7.07063 12.0708 8.94146V22.4782C13.3213 23.4665 14.8431 24.0407 16.4284 24.1225C17.3031 24.1152 18.1617 23.8838 18.9238 23.4498C19.6859 23.0159 20.3267 22.3936 20.7861 21.6413C22.0075 19.7712 22.7831 17.6404 23.0521 15.4162C23.1931 14.4343 23.2563 13.4425 23.2409 12.4504L23.3281 12.4798Z" fill="url(#paint0_linear_507_2)"/>
<path d="M154.901 25.5027H155.162C159.607 34.4195 165.902 39.3135 174.046 40.1846C174.844 40.258 175.411 40.2874 175.774 40.2874C177.052 40.3261 178.323 40.0753 179.493 39.5533C180.397 39.1286 181.131 38.4031 181.57 37.4978C181.629 37.2822 181.663 37.0605 181.672 36.8371C181.463 35.3195 180.676 33.9443 179.478 33.0051C177.498 31.2327 175.265 29.7726 172.854 28.674C170.501 27.5777 167.998 26.3249 165.345 24.9154C163.244 23.855 161.224 22.6379 159.302 21.2743C157.881 20.2468 156.677 18.9443 155.758 17.4423C154.937 16.122 154.494 14.5972 154.48 13.0378C154.48 9.70986 156.416 6.65603 160.29 3.87626L161.859 2.64298C162.872 1.87923 164.014 1.3072 165.229 0.954558C166.878 0.488277 168.585 0.265742 170.298 0.293873C170.719 0.293873 171.446 0.293873 172.462 0.396646C174.499 0.551726 176.52 0.87582 178.505 1.36565C180.178 1.70655 181.783 2.32679 183.255 3.20089V17.0606H183.022C181.548 14.7159 179.85 12.5228 177.953 10.5125C176.09 8.63318 173.943 7.06692 171.591 5.87299C169.195 4.46619 166.5 3.66063 163.732 3.52389C162.864 3.49743 162 3.6472 161.19 3.96435C160.61 4.20094 160.106 4.59775 159.738 5.10953C159.392 5.62859 159.219 6.24589 159.244 6.87136C159.269 7.80446 159.545 8.713 160.043 9.49942C160.663 10.5148 161.484 11.3896 162.454 12.0688C163.624 12.9156 164.847 13.6855 166.115 14.3738C167.499 15.1373 169.436 16.1797 171.925 17.5011C174.06 18.5875 176.036 19.6593 177.88 20.6723C179.523 21.5579 181.063 22.6266 182.47 23.8583C183.447 24.7322 184.246 25.7893 184.824 26.9709C185.148 27.7157 185.317 28.5206 185.317 29.3347C185.115 31.8572 184.329 34.2963 183.022 36.4554C181.7 39.2937 179.461 41.5927 176.675 42.9741C174.042 44.2173 171.17 44.8542 168.264 44.8387C165.857 44.8181 163.46 44.5226 161.118 43.9578C158.953 43.5146 156.866 42.7423 154.93 41.6674L154.901 25.5027Z" fill="url(#paint1_linear_507_2)"/>
<path d="M79.3387 26.3394C94.0532 26.3394 94.0532 26.3394 94.0677 9.5874C94.0677 26.3394 94.0677 26.3394 108.782 26.3394C94.0677 26.3394 94.0677 26.3394 94.0677 43.0915C94.0532 26.4275 94.0532 26.3394 79.3387 26.3394Z" fill="url(#paint2_linear_507_2)"/>
<path d="M80.1377 5.77013C80.9977 5.49933 81.8952 5.37044 82.7958 5.3884C84.8319 5.44198 86.8447 5.83896 88.7513 6.56295C91.2072 7.49777 93.4904 8.84273 95.5057 10.5417C97.9341 12.5987 100.019 15.0378 101.679 17.7652C103.048 19.8959 104.069 22.2359 104.7 24.6951L111.092 24.563C111.214 23.5251 111.277 22.4809 111.281 21.4357C111.288 20.2477 111.215 19.0606 111.063 17.8827C110.517 13.5283 108.696 9.43816 105.833 6.13718C102.574 2.75035 98.2706 0.585966 93.6319 0.000145231C91.8961 -0.0719036 90.1592 0.11108 88.4753 0.543375C86.6505 1.05398 84.9015 1.80948 83.2752 2.78971C81.0987 4.07382 79.1617 5.73351 77.5521 7.69346C75.8262 9.78167 74.4521 12.1427 73.4849 14.682L73.3106 15.1665L73.2235 14.9316L71.8436 12.0687C68.9384 6.81254 64.45 1.43897 58.1895 0.646149H58.3493C57.7842 0.596202 57.2163 0.58639 56.6498 0.616785H34.1497V0.895741C34.8184 0.976826 35.4436 1.27329 35.9328 1.74128C36.4219 2.20927 36.7491 2.82396 36.8659 3.49444C37.3288 5.27143 37.5487 7.10411 37.5196 8.94142V36.1323C37.5351 37.3575 37.4867 38.5827 37.3743 39.8028C37.2932 40.6913 37.0258 41.5521 36.59 42.328C36.353 42.8065 36.0091 43.2228 35.5856 43.5438C35.1621 43.8649 34.6705 44.082 34.1497 44.178V44.4569H49.5468V44.178C49.0275 44.0778 48.5378 43.859 48.1148 43.5384C47.6919 43.2178 47.347 42.8038 47.1065 42.328C46.6835 41.5465 46.417 40.6884 46.3221 39.8028C46.2349 38.8925 46.1914 37.6592 46.1914 36.1323V20.5548C46.7337 21.4651 47.9829 23.2905 49.939 26.0311C52.5342 29.7603 54.9164 33.2302 57.0856 36.4406C58.519 38.7449 60.2922 40.8144 62.3438 42.5776C63.7127 43.7534 65.4298 44.4352 67.2244 44.5156C68.0233 44.5156 68.8368 43.7081 69.6647 42.1078C70.7579 39.8985 71.7278 37.629 72.5698 35.3101L72.2938 35.1486C72.0556 35.3138 71.7685 35.3916 71.4804 35.3688C70.4202 35.2281 69.4169 34.8022 68.5753 34.1355C67.1633 33.1522 65.8882 31.9819 64.7841 30.6559C63.9562 29.7016 63.012 28.5124 61.9952 27.0882C60.9784 25.6641 60.0052 24.2987 59.0901 22.9773C58.5817 22.1845 58.204 21.6119 57.9426 21.2889C59.9284 21.0988 61.8481 20.4671 63.564 19.439C65.0023 18.5705 66.1895 17.3351 67.0065 15.8566C67.7555 14.4594 68.1451 12.8943 68.1395 11.3052C68.1401 9.58527 67.6836 7.89675 66.8177 6.41613C68.2577 8.21594 69.4725 10.1884 70.4346 12.2889C70.7125 12.8222 70.9599 13.3712 71.1754 13.9333C71.7336 15.2257 72.2186 16.5492 72.6279 17.8974C72.266 19.5261 72.0857 21.1906 72.0905 22.8599C72.0866 24.8802 72.3604 26.8912 72.9039 28.8354C73.7084 31.8409 75.1619 34.6288 77.1599 36.9985C78.9808 39.2544 81.2026 41.1465 83.711 42.5776C85.9528 43.8635 88.4186 44.7009 90.9738 45.0442C92.3178 44.9174 93.6433 44.6366 94.9247 44.2073C96.6712 43.6199 98.3472 42.8368 99.9215 41.8729C103.348 39.8359 106.195 36.9378 108.187 33.4602C109.548 31.1119 110.483 28.5362 110.946 25.855L105.005 25.9577C105.303 27.5009 105.453 29.0692 105.456 30.6413C105.476 32.2443 105.29 33.8433 104.904 35.3982C104.686 36.4517 104.261 37.4503 103.655 38.3346C102.866 38.6551 102.02 38.8051 101.171 38.775C98.9003 38.7123 96.6624 38.2141 94.5761 37.3068C91.8598 36.1512 89.3516 34.5488 87.1535 32.5646C84.646 30.3663 82.5756 27.7056 81.0528 24.7245C79.0037 21.1149 77.8662 17.0505 77.7409 12.8908C77.7128 11.3937 77.9438 9.90303 78.4236 8.48628C78.7448 7.44247 79.3367 6.50461 80.1377 5.77013ZM57.5794 19.7913C56.9838 20.4719 56.2342 20.9969 55.3945 21.3216C54.5548 21.6463 53.6499 21.761 52.7569 21.6559C50.4655 21.5851 48.2202 20.9876 46.1914 19.9088V8.94142C46.1493 7.08594 46.3594 5.2334 46.816 3.43571C46.9351 2.79304 47.2738 2.2131 47.773 1.79716C48.2721 1.38122 48.8999 1.15571 49.5468 1.16001C51.9202 1.48046 54.1087 2.62799 55.7347 4.40471C57.6883 6.72139 58.8811 9.59455 59.1482 12.6266C59.2579 13.2567 59.3113 13.8955 59.308 14.5352C59.3891 16.4422 58.7739 18.3129 57.5794 19.7913Z" fill="url(#paint3_linear_507_2)"/>
<path d="M218 17.2807H217.738C217.161 15.1731 216.326 13.1462 215.255 11.2464C214.047 8.90304 212.673 6.65087 211.144 4.50741C209.691 2.55472 208.718 1.57103 208.108 1.57103C207.788 1.57103 207.556 1.80594 207.44 2.30512C207.257 3.27259 207.174 4.2567 207.193 5.2415C207.193 6.70969 207.193 8.39811 207.193 10.4242V36.2497C207.177 37.4651 207.225 38.6806 207.338 39.8908C207.419 40.7727 207.681 41.6278 208.108 42.4014C208.346 42.8761 208.689 43.2896 209.109 43.6102C209.529 43.9308 210.017 44.1501 210.534 44.2513V44.5156H195.195V44.2513C195.713 44.1522 196.201 43.9337 196.622 43.6129C197.042 43.292 197.384 42.8774 197.621 42.4014C198.058 41.6315 198.326 40.775 198.405 39.8908C198.492 38.9952 198.536 37.7766 198.536 36.2497V10.3802C198.536 8.35406 198.536 6.6216 198.536 5.19746C198.549 4.21349 198.471 3.23044 198.303 2.26108C198.173 1.76189 197.955 1.52698 197.621 1.52698C197.01 1.52698 196.008 2.49599 194.585 4.46336C193.061 6.61027 191.687 8.86208 190.474 11.2024C189.405 13.1016 188.575 15.1288 188.005 17.2366H187.729V1.04248H218.058L218 17.2807Z" fill="url(#paint4_linear_507_2)"/>
<path d="M145.488 17.9413C146.38 16.3969 147.524 15.0167 148.873 13.8598V8.94133C148.844 7.10403 149.064 5.27134 149.526 3.49435C149.643 2.82387 149.97 2.20919 150.46 1.74119C150.949 1.2732 151.574 0.976741 152.243 0.895655V0.616699H136.846V0.895655C137.512 0.979681 138.134 1.27745 138.62 1.7452C139.106 2.21296 139.431 2.82603 139.547 3.49435C140.01 5.27134 140.23 7.10403 140.201 8.94133V29.8483C141.513 25.6903 143.287 21.6959 145.488 17.9413Z" fill="url(#paint5_linear_507_2)"/>
<path d="M140.898 29.9952C140.666 30.8027 140.433 31.6249 140.23 32.4324V44.4569H152.272V44.1779C151.603 44.0968 150.978 43.8004 150.489 43.3324C149.999 42.8644 149.672 42.2497 149.555 41.5792C149.091 39.8025 148.872 37.9696 148.902 36.1323V14.5205C146.215 16.4292 142.002 26.1926 140.898 29.9952Z" fill="url(#paint6_linear_507_2)"/>
<path d="M140.085 32.946C140.13 32.8209 140.169 32.6935 140.201 32.5643V32.4321C140.157 32.6083 140.128 32.7698 140.085 32.946Z" fill="url(#paint7_linear_507_2)"/>
<path d="M138.705 34.6493C138.066 36.0873 137.147 37.3805 136.003 38.4519C135.306 39.1619 134.407 39.6341 133.432 39.8027C131.702 39.8255 130.024 39.2095 128.711 38.0702C127.261 36.8825 126.052 35.4216 125.152 33.7684C124.347 32.3763 123.777 30.8578 123.467 29.2758C123.099 27.2308 122.9 25.1584 122.872 23.08C122.856 20.7893 123.175 18.5087 123.816 16.3116C124.639 13.6899 125.664 11.1373 126.881 8.67706C127.66 6.96884 128.594 5.3371 129.67 3.80267C130.352 2.74434 131.14 1.76029 132.023 0.866291V0.616699H120.461L116.51 8.8092H117.004C117.227 8.54928 117.501 8.33836 117.808 8.18939C118.116 8.04042 118.45 7.95656 118.79 7.94296C120.238 7.79583 121.693 7.737 123.148 7.76678H126.678L124.92 10.1012C123.104 12.509 121.637 14.5792 120.562 16.3116C119.375 18.1712 118.359 20.137 117.527 22.1844C116.632 24.3634 116.059 26.6638 115.827 29.0115C115.827 29.8924 115.711 30.4797 115.711 30.9789C115.674 33.4049 116.223 35.8035 117.309 37.9674C118.259 39.8892 119.642 41.5588 121.347 42.8418C122.746 43.9383 124.422 44.6149 126.184 44.7945C127.88 44.7384 129.537 44.2593 131.006 43.3997C133.089 42.2725 134.962 40.787 136.541 39.0098C138.124 37.3387 139.319 35.3328 140.041 33.1371V32.9903C140.041 32.8141 140.041 32.6526 140.157 32.4764V29.8483C139.978 30.8841 139.741 31.9086 139.446 32.9169C139.241 33.5118 138.993 34.0908 138.705 34.6493Z" fill="url(#paint8_linear_507_2)"/>
</g>
<defs>
<linearGradient id="paint0_linear_507_2" x1="16.0217" y1="44.457" x2="16.0217" y2="0.61682" gradientUnits="userSpaceOnUse">
<stop stop-color="#580C2D"/>
<stop offset="1" stop-color="#BF548E"/>
</linearGradient>
<linearGradient id="paint1_linear_507_2" x1="169.833" y1="44.8387" x2="169.833" y2="0.293872" gradientUnits="userSpaceOnUse">
<stop stop-color="#580C2D"/>
<stop offset="1" stop-color="#BF548E"/>
</linearGradient>
<linearGradient id="paint2_linear_507_2" x1="94.0677" y1="43.0915" x2="94.0677" y2="9.5874" gradientUnits="userSpaceOnUse">
<stop stop-color="#580C2D"/>
<stop offset="1" stop-color="#BF548E"/>
</linearGradient>
<linearGradient id="paint3_linear_507_2" x1="72.7296" y1="45.0002" x2="72.7296" y2="0.00014651" gradientUnits="userSpaceOnUse">
<stop stop-color="#580C2D"/>
<stop offset="1" stop-color="#BF548E"/>
</linearGradient>
<linearGradient id="paint4_linear_507_2" x1="202.835" y1="44.5156" x2="202.835" y2="1.04248" gradientUnits="userSpaceOnUse">
<stop stop-color="#580C2D"/>
<stop offset="1" stop-color="#BF548E"/>
</linearGradient>
<linearGradient id="paint5_linear_507_2" x1="144.544" y1="29.8483" x2="144.544" y2="0.616699" gradientUnits="userSpaceOnUse">
<stop stop-color="#580C2D"/>
<stop offset="1" stop-color="#BF548E"/>
</linearGradient>
<linearGradient id="paint6_linear_507_2" x1="146.215" y1="44.4569" x2="146.215" y2="14.5205" gradientUnits="userSpaceOnUse">
<stop stop-color="#580C2D"/>
<stop offset="1" stop-color="#BF548E"/>
</linearGradient>
<linearGradient id="paint7_linear_507_2" x1="140.143" y1="32.946" x2="140.143" y2="32.4321" gradientUnits="userSpaceOnUse">
<stop stop-color="#580C2D"/>
<stop offset="1" stop-color="#BF548E"/>
</linearGradient>
<linearGradient id="paint8_linear_507_2" x1="127.927" y1="44.7358" x2="127.927" y2="0.616699" gradientUnits="userSpaceOnUse">
<stop stop-color="#580C2D"/>
<stop offset="1" stop-color="#BF548E"/>
</linearGradient>
<clipPath id="clip0_507_2">
<rect width="218" height="45" fill="white"/>
</clipPath>
</defs>
</svg>
